<?xml version="1.0" standalone="no"?>
<!DOCTYPE svg PUBLIC "-//W3C//DTD SVG 20010904//EN"
 "http://www.w3.org/TR/2001/REC-SVG-20010904/DTD/svg10.dtd">
<svg version="1.0" xmlns="http://www.w3.org/2000/svg"
 width="512.000000pt" height="512.000000pt" viewBox="0 0 512.000000 512.000000"
 preserveAspectRatio="xMidYMid meet">
<metadata>
Created by potrace 1.14, written by Peter Selinger 2001-2017
</metadata>
<g transform="translate(0.000000,512.000000) scale(0.100000,-0.100000)"
fill="#000000" stroke="none">
<path d="M2220 4999 c-36 -4 -87 -11 -115 -14 -54 -6 -223 -40 -276 -55 -19
-6 -179 -10 -356 -10 -199 0 -332 -4 -349 -10 -32 -13 -72 -53 -85 -87 -5 -13
-9 -79 -9 -146 l-1 -122 -86 -65 c-111 -83 -308 -278 -405 -400 -200 -251
-337 -513 -431 -820 -81 -263 -106 -450 -102 -750 3 -212 10 -275 56 -495 114
-545 454 -1075 909 -1416 323 -242 668 -394 1045 -459 78 -14 81 -14 180 -26
132 -15 501 -9 600 10 11 2 40 7 65 11 25 4 92 18 150 31 99 23 125 25 427 27
307 2 323 3 349 23 61 45 68 64 70 191 1 65 2 123 3 129 0 6 22 26 49 44 26
19 49 37 52 40 3 3 39 34 80 68 161 134 316 309 437 492 42 63 84 126 93 140
30 46 137 274 173 370 104 275 148 514 152 820 5 339 -40 603 -156 909 -21 58
-39 106 -39 108 0 2 69 3 153 3 171 0 203 9 244 70 l23 33 -3 591 -2 591 -24
31 c-46 62 11 59 -1026 61 -911 1 -953 2 -1030 21 -44 11 -96 23 -115 26 -19
3 -46 9 -60 12 -14 3 -47 7 -75 11 -27 3 -79 9 -115 13 -80 10 -362 9 -450 -1z"/>
</g>
</svg>
